# xmcd
#
# Track frame offsets:
#	183
#	14138
#	23370
#	36370
#	47818
#	61175
#	73813
#	87080
#	99853
#	112435
#	126898
#	141058
#	154800
#	165140
#
# Disc length: 2377 seconds
#
# Revision: 1
# Processed by: cddbd v1.5.2PL0 Copyright (c) Steve Scherf et al.
# Submitted via: audiograbber 1.83.01
#
DISCID=b609470e
DTITLE=Tom T. Hall - The Country Store Collection
DYEAR=1988
DGENRE=Country
TTITLE0=Shoeshine Man
TTITLE1=I Care
TTITLE2=I Like Beer
TTITLE3=Deal
TTITLE4=Negatory Romance
TTITLE5=It's All In The Game
TTITLE6=Senior Citizen Star
TTITLE7=May The Force Be With You Always
TTITLE8=I Wished I Loved Somebody Else
TTITLE9=What Have You Got To Loose
TTITLE10=There Is A Miracle In You
TTITLE11=The Old Side Of Town
TTITLE12=Jesus On The Radio, Daddy On The Phone
TTITLE13=Son Of Clayton Delaney
EXTD=
EXTT0=
EXTT1=
EXTT2=
EXTT3=
EXTT4=
EXTT5=
EXTT6=
EXTT7=
EXTT8=
EXTT9=
EXTT10=
EXTT11=
EXTT12=
EXTT13=
PLAYORDER=
